<?xml version="1.0" encoding="UTF-8" standalone="no"?>
<!DOCTYPE svg PUBLIC "-//W3C//DTD SVG 1.1//EN" "http://www.w3.org/Graphics/SVG/1.1/DTD/svg11.dtd">
<svg width="100%" height="100%" viewBox="0 0 780 347" version="1.1" xmlns="http://www.w3.org/2000/svg" xmlns:xlink="http://www.w3.org/1999/xlink" xml:space="preserve" xmlns:serif="http://www.serif.com/" style="fill-rule:evenodd;clip-rule:evenodd;stroke-linecap:round;stroke-miterlimit:1.5;">
    <g transform="matrix(1,0,0,1,-122.236837,-340.464543)">
        <g transform="matrix(0.995398,0,0,1.213141,2.356345,163.072546)">
            <path d="M200,282.267C303.99,344.249 407.96,234.551 511.97,234.712C552.394,234.774 592.817,251.429 633.241,268.093C683.129,288.659 733.017,309.241 782.905,298.668C796.603,295.765 810.302,290.513 824,282.267" style="fill:none;stroke:currentColor;stroke-width:9.39px;"/>
        </g>
        <g transform="matrix(1.213141,0,0,1.213141,-109.128205,310.219454)">
            <path d="M200,282.267C303.99,344.249 407.96,234.551 511.97,234.712C602.282,234.851 692.593,317.808 782.905,298.668C796.603,295.765 810.302,290.513 824,282.267" style="fill:none;stroke:currentColor;stroke-width:10.3px;"/>
        </g>
        <g transform="matrix(0.497699,0,0,0.505118,257.178172,229.419216)">
            <path d="M200,282.267C303.99,344.249 407.96,234.551 511.97,234.712C602.282,234.851 692.593,317.808 782.905,298.668C796.603,295.765 810.302,290.513 824,282.267" style="fill:none;stroke:currentColor;stroke-width:16.62px;"/>
        </g>
    </g>
</svg>
